<?xml version="1.0" encoding="UTF-8"?>
<svg width="911px" height="158px" viewBox="0 0 911 158" version="1.1" xmlns="http://www.w3.org/2000/svg" xmlns:xlink="http://www.w3.org/1999/xlink">
    <title>leberzirrhose-symptome-en</title>
    <g id="Page-1" stroke="none" stroke-width="1" fill="none" fill-rule="evenodd">
        <g id="vorlage" transform="translate(2.000000, -35932.000000)" fill-rule="nonzero">
            <g id="leberzirrhose-symptome-en" transform="translate(-2.000000, 35932.000000)">
                <path d="M911,12 L911,145.96 C911,152.586731 905.626731,157.958344 899,157.960001 L12,157.960001 C8.81713422,157.960001 5.76437847,156.696875 3.51375208,154.446249 C1.26312569,152.195622 0,149.142867 0,145.96 L0,12 C0,8.81713422 1.26312569,5.76437847 3.51375208,3.51375208 C5.76437847,1.26312569 8.81713422,0 12,0 L899,0 C905.626731,0.00165651644 911,5.37326954 911,12 Z" id="Path" fill="#F5F6F7"></path>
                <g id="Cirrhosis-of-the-liv" transform="translate(125.100000, 52.725000)">
                    <path d="M8.6,2.525 C9.68333333,2.525 10.6458333,2.68333333 11.4875,3 C12.3291667,3.31666667 13.125,3.79166667 13.875,4.425 L11.925,6.75 C11.4083333,6.35 10.9,6.05 10.4,5.85 C9.9,5.65 9.36666667,5.55 8.8,5.55 C7.63333333,5.55 6.7125,6.04166667 6.0375,7.025 C5.3625,8.00833333 5.025,9.525 5.025,11.575 C5.025,13.5916667 5.3625,15.0875 6.0375,16.0625 C6.7125,17.0375 7.65,17.525 8.85,17.525 C9.48333333,17.525 10.0583333,17.4041667 10.575,17.1625 C11.0916667,16.9208333 11.65,16.575 12.25,16.125 L14.075,18.475 C13.425,19.125 12.6375,19.6583333 11.7125,20.075 C10.7875,20.4916667 9.76666667,20.7 8.65,20.7 C7.05,20.7 5.65833333,20.35 4.475,19.65 C3.29166667,18.95 2.37083333,17.9125 1.7125,16.5375 C1.05416667,15.1625 0.725,13.5083333 0.725,11.575 C0.725,9.69166667 1.0625,8.06666667 1.7375,6.7 C2.4125,5.33333333 3.34583333,4.29583333 4.5375,3.5875 C5.72916667,2.87916667 7.08333333,2.525 8.6,2.525 Z" id="Path" fill="#E0003F"></path>
                    <path d="M19.775,7 L19.775,20.275 L15.825,20.275 L15.825,7 L19.775,7 Z M17.775,0 C18.4583333,0 19.0208333,0.2125 19.4625,0.6375 C19.9041667,1.0625 20.125,1.6 20.125,2.25 C20.125,2.9 19.9041667,3.4375 19.4625,3.8625 C19.0208333,4.2875 18.4583333,4.5 17.775,4.5 C17.0916667,4.5 16.5333333,4.2875 16.1,3.8625 C15.6666667,3.4375 15.45,2.9 15.45,2.25 C15.45,1.6 15.6666667,1.0625 16.1,0.6375 C16.5333333,0.2125 17.0916667,0 17.775,0 Z" id="Shape" fill="#E0003F"></path>
                    <path d="M30.075,6.625 C30.5583333,6.625 31,6.68333333 31.4,6.8 L30.775,10.625 C30.275,10.5083333 29.875,10.45 29.575,10.45 C28.7916667,10.45 28.1958333,10.7208333 27.7875,11.2625 C27.3791667,11.8041667 27.0583333,12.6166667 26.825,13.7 L26.825,20.275 L22.875,20.275 L22.875,7 L26.325,7 L26.65,9.575 C26.95,8.65833333 27.4041667,7.9375 28.0125,7.4125 C28.6208333,6.8875 29.3083333,6.625 30.075,6.625 Z" id="Path" fill="#E0003F"></path>
                    <path d="M40.1,6.625 C40.5833333,6.625 41.025,6.68333333 41.425,6.8 L40.8,10.625 C40.3,10.5083333 39.9,10.45 39.6,10.45 C38.8166667,10.45 38.2208333,10.7208333 37.8125,11.2625 C37.4041667,11.8041667 37.0833333,12.6166667 36.85,13.7 L36.85,20.275 L32.9,20.275 L32.9,7 L36.35,7 L36.675,9.575 C36.975,8.65833333 37.4291667,7.9375 38.0375,7.4125 C38.6458333,6.8875 39.3333333,6.625 40.1,6.625 Z" id="Path" fill="#E0003F"></path>
                    <path d="M50.7,6.575 C51.85,6.575 52.75,6.925 53.4,7.625 C54.05,8.325 54.375,9.30833333 54.375,10.575 L54.375,20.275 L50.425,20.275 L50.425,11.25 C50.425,10.5833333 50.3166667,10.1208333 50.1,9.8625 C49.8833333,9.60416667 49.575,9.475 49.175,9.475 C48.375,9.475 47.6083333,10.0416667 46.875,11.175 L46.875,20.275 L42.925,20.275 L42.925,1.725 L46.875,1.325 L46.875,8.425 C47.425,7.80833333 48.0083333,7.34583333 48.625,7.0375 C49.2416667,6.72916667 49.9333333,6.575 50.7,6.575 Z" id="Path" fill="#E0003F"></path>
                    <path d="M63.1,6.575 C65.1333333,6.575 66.725,7.19583333 67.875,8.4375 C69.025,9.67916667 69.6,11.4166667 69.6,13.65 C69.6,15.0666667 69.3375,16.3041667 68.8125,17.3625 C68.2875,18.4208333 67.5375,19.2416667 66.5625,19.825 C65.5875,20.4083333 64.4333333,20.7 63.1,20.7 C61.0833333,20.7 59.4958333,20.0791667 58.3375,18.8375 C57.1791667,17.5958333 56.6,15.8583333 56.6,13.625 C56.6,12.2083333 56.8625,10.9708333 57.3875,9.9125 C57.9125,8.85416667 58.6625,8.03333333 59.6375,7.45 C60.6125,6.86666667 61.7666667,6.575 63.1,6.575 Z M63.1,9.475 C62.3,9.475 61.7,9.8125 61.3,10.4875 C60.9,11.1625 60.7,12.2083333 60.7,13.625 C60.7,15.075 60.8958333,16.1333333 61.2875,16.8 C61.6791667,17.4666667 62.2833333,17.8 63.1,17.8 C63.9,17.8 64.5,17.4625 64.9,16.7875 C65.3,16.1125 65.5,15.0666667 65.5,13.65 C65.5,12.2 65.3041667,11.1416667 64.9125,10.475 C64.5208333,9.80833333 63.9166667,9.475 63.1,9.475 Z" id="Shape" fill="#E0003F"></path>
                    <path d="M76.625,6.575 C77.575,6.575 78.4666667,6.71666667 79.3,7 C80.1333333,7.28333333 80.8666667,7.68333333 81.5,8.2 L80.05,10.425 C78.9666667,9.74166667 77.875,9.4 76.775,9.4 C76.2583333,9.4 75.8625,9.4875 75.5875,9.6625 C75.3125,9.8375 75.175,10.0833333 75.175,10.4 C75.175,10.65 75.2375,10.8541667 75.3625,11.0125 C75.4875,11.1708333 75.7416667,11.3333333 76.125,11.5 C76.5083333,11.6666667 77.1,11.8666667 77.9,12.1 C79.2833333,12.5 80.3125,13.0208333 80.9875,13.6625 C81.6625,14.3041667 82,15.1916667 82,16.325 C82,17.225 81.7416667,18.0041667 81.225,18.6625 C80.7083333,19.3208333 80,19.825 79.1,20.175 C78.2,20.525 77.2,20.7 76.1,20.7 C74.9833333,20.7 73.9458333,20.525 72.9875,20.175 C72.0291667,19.825 71.2166667,19.3416667 70.55,18.725 L72.475,16.575 C73.5916667,17.4416667 74.7666667,17.875 76,17.875 C76.6,17.875 77.0708333,17.7666667 77.4125,17.55 C77.7541667,17.3333333 77.925,17.025 77.925,16.625 C77.925,16.3083333 77.8583333,16.0583333 77.725,15.875 C77.5916667,15.6916667 77.3333333,15.5208333 76.95,15.3625 C76.5666667,15.2041667 75.9583333,15.0083333 75.125,14.775 C73.8083333,14.3916667 72.825,13.8583333 72.175,13.175 C71.525,12.4916667 71.2,11.6416667 71.2,10.625 C71.2,9.85833333 71.4208333,9.17083333 71.8625,8.5625 C72.3041667,7.95416667 72.9375,7.47083333 73.7625,7.1125 C74.5875,6.75416667 75.5416667,6.575 76.625,6.575 Z" id="Path" fill="#E0003F"></path>
                    <path d="M87.975,7 L87.975,20.275 L84.025,20.275 L84.025,7 L87.975,7 Z M85.975,0 C86.6583333,0 87.2208333,0.2125 87.6625,0.6375 C88.1041667,1.0625 88.325,1.6 88.325,2.25 C88.325,2.9 88.1041667,3.4375 87.6625,3.8625 C87.2208333,4.2875 86.6583333,4.5 85.975,4.5 C85.2916667,4.5 84.7333333,4.2875 84.3,3.8625 C83.8666667,3.4375 83.65,2.9 83.65,2.25 C83.65,1.6 83.8666667,1.0625 84.3,0.6375 C84.7333333,0.2125 85.2916667,0 85.975,0 Z" id="Shape" fill="#E0003F"></path>
                    <path d="M95.75,6.575 C96.7,6.575 97.5916667,6.71666667 98.425,7 C99.2583333,7.28333333 99.9916667,7.68333333 100.625,8.2 L99.175,10.425 C98.0916667,9.74166667 97,9.4 95.9,9.4 C95.3833333,9.4 94.9875,9.4875 94.7125,9.6625 C94.4375,9.8375 94.3,10.0833333 94.3,10.4 C94.3,10.65 94.3625,10.8541667 94.4875,11.0125 C94.6125,11.1708333 94.8666667,11.3333333 95.25,11.5 C95.6333333,11.6666667 96.225,11.8666667 97.025,12.1 C98.4083333,12.5 99.4375,13.0208333 100.1125,13.6625 C100.7875,14.3041667 101.125,15.1916667 101.125,16.325 C101.125,17.225 100.866667,18.0041667 100.35,18.6625 C99.8333333,19.3208333 99.125,19.825 98.225,20.175 C97.325,20.525 96.325,20.7 95.225,20.7 C94.1083333,20.7 93.0708333,20.525 92.1125,20.175 C91.1541667,19.825 90.3416667,19.3416667 89.675,18.725 L91.6,16.575 C92.7166667,17.4416667 93.8916667,17.875 95.125,17.875 C95.725,17.875 96.1958333,17.7666667 96.5375,17.55 C96.8791667,17.3333333 97.05,17.025 97.05,16.625 C97.05,16.3083333 96.9833333,16.0583333 96.85,15.875 C96.7166667,15.6916667 96.4583333,15.5208333 96.075,15.3625 C95.6916667,15.2041667 95.0833333,15.0083333 94.25,14.775 C92.9333333,14.3916667 91.95,13.8583333 91.3,13.175 C90.65,12.4916667 90.325,11.6416667 90.325,10.625 C90.325,9.85833333 90.5458333,9.17083333 90.9875,8.5625 C91.4291667,7.95416667 92.0625,7.47083333 92.8875,7.1125 C93.7125,6.75416667 94.6666667,6.575 95.75,6.575 Z" id="Path" fill="#E0003F"></path>
                    <path d="M114.825,6.575 C116.858333,6.575 118.45,7.19583333 119.6,8.4375 C120.75,9.67916667 121.325,11.4166667 121.325,13.65 C121.325,15.0666667 121.0625,16.3041667 120.5375,17.3625 C120.0125,18.4208333 119.2625,19.2416667 118.2875,19.825 C117.3125,20.4083333 116.158333,20.7 114.825,20.7 C112.808333,20.7 111.220833,20.0791667 110.0625,18.8375 C108.904167,17.5958333 108.325,15.8583333 108.325,13.625 C108.325,12.2083333 108.5875,10.9708333 109.1125,9.9125 C109.6375,8.85416667 110.3875,8.03333333 111.3625,7.45 C112.3375,6.86666667 113.491667,6.575 114.825,6.575 Z M114.825,9.475 C114.025,9.475 113.425,9.8125 113.025,10.4875 C112.625,11.1625 112.425,12.2083333 112.425,13.625 C112.425,15.075 112.620833,16.1333333 113.0125,16.8 C113.404167,17.4666667 114.008333,17.8 114.825,17.8 C115.625,17.8 116.225,17.4625 116.625,16.7875 C117.025,16.1125 117.225,15.0666667 117.225,13.65 C117.225,12.2 117.029167,11.1416667 116.6375,10.475 C116.245833,9.80833333 115.641667,9.475 114.825,9.475 Z" id="Shape" fill="#E0003F"></path>
                    <path d="M129.75,4.225 C129.183333,4.225 128.775,4.35833333 128.525,4.625 C128.275,4.89166667 128.15,5.34166667 128.15,5.975 L128.15,7 L131.275,7 L130.85,9.75 L128.15,9.75 L128.15,20.275 L124.2,20.275 L124.2,9.75 L122.2,9.75 L122.2,7 L124.2,7 L124.2,5.825 C124.2,4.49166667 124.6375,3.40416667 125.5125,2.5625 C126.3875,1.72083333 127.641667,1.3 129.275,1.3 C130.591667,1.3 131.8,1.58333333 132.9,2.15 L131.825,4.725 C131.158333,4.39166667 130.466667,4.225 129.75,4.225 Z" id="Path" fill="#E0003F"></path>
                    <path d="M146.825,19.65 C146.341667,19.9833333 145.779167,20.2416667 145.1375,20.425 C144.495833,20.6083333 143.858333,20.7 143.225,20.7 C140.325,20.6833333 138.875,19.0833333 138.875,15.9 L138.875,9.75 L137,9.75 L137,7 L138.875,7 L138.875,4.125 L142.825,3.675 L142.825,7 L145.875,7 L145.45,9.75 L142.825,9.75 L142.825,15.85 C142.825,16.4666667 142.925,16.9083333 143.125,17.175 C143.325,17.4416667 143.641667,17.575 144.075,17.575 C144.525,17.575 145,17.4333333 145.5,17.15 L146.825,19.65 Z" id="Path" fill="#E0003F"></path>
                    <path d="M155.925,6.575 C157.075,6.575 157.975,6.925 158.625,7.625 C159.275,8.325 159.6,9.30833333 159.6,10.575 L159.6,20.275 L155.65,20.275 L155.65,11.25 C155.65,10.5833333 155.541667,10.1208333 155.325,9.8625 C155.108333,9.60416667 154.8,9.475 154.4,9.475 C153.6,9.475 152.833333,10.0416667 152.1,11.175 L152.1,20.275 L148.15,20.275 L148.15,1.725 L152.1,1.325 L152.1,8.425 C152.65,7.80833333 153.233333,7.34583333 153.85,7.0375 C154.466667,6.72916667 155.158333,6.575 155.925,6.575 Z" id="Path" fill="#E0003F"></path>
                    <path d="M174.15,13.375 C174.15,13.925 174.125,14.4 174.075,14.8 L165.85,14.8 C165.983333,15.9166667 166.3,16.7 166.8,17.15 C167.3,17.6 167.991667,17.825 168.875,17.825 C169.408333,17.825 169.925,17.7291667 170.425,17.5375 C170.925,17.3458333 171.466667,17.05 172.05,16.65 L173.675,18.85 C172.125,20.0833333 170.4,20.7 168.5,20.7 C166.35,20.7 164.7,20.0666667 163.55,18.8 C162.4,17.5333333 161.825,15.8333333 161.825,13.7 C161.825,12.35 162.066667,11.1375 162.55,10.0625 C163.033333,8.9875 163.741667,8.1375 164.675,7.5125 C165.608333,6.8875 166.725,6.575 168.025,6.575 C169.941667,6.575 171.441667,7.175 172.525,8.375 C173.608333,9.575 174.15,11.2416667 174.15,13.375 Z M170.275,12.25 C170.241667,10.2166667 169.525,9.2 168.125,9.2 C167.441667,9.2 166.9125,9.45 166.5375,9.95 C166.1625,10.45 165.933333,11.275 165.85,12.425 L170.275,12.425 L170.275,12.25 Z" id="Shape" fill="#E0003F"></path>
                    <path d="M185.825,20.7 C184.675,20.7 183.779167,20.3708333 183.1375,19.7125 C182.495833,19.0541667 182.175,18.1166667 182.175,16.9 L182.175,1.725 L186.125,1.3 L186.125,16.75 C186.125,17.3 186.35,17.575 186.8,17.575 C187.033333,17.575 187.25,17.5333333 187.45,17.45 L188.225,20.25 C187.508333,20.55 186.708333,20.7 185.825,20.7 Z" id="Path" fill="#E0003F"></path>
                    <path d="M193.675,7 L193.675,20.275 L189.725,20.275 L189.725,7 L193.675,7 Z M191.675,0 C192.358333,0 192.920833,0.2125 193.3625,0.6375 C193.804167,1.0625 194.025,1.6 194.025,2.25 C194.025,2.9 193.804167,3.4375 193.3625,3.8625 C192.920833,4.2875 192.358333,4.5 191.675,4.5 C190.991667,4.5 190.433333,4.2875 190,3.8625 C189.566667,3.4375 189.35,2.9 189.35,2.25 C189.35,1.6 189.566667,1.0625 190,0.6375 C190.433333,0.2125 190.991667,0 191.675,0 Z" id="Shape" fill="#E0003F"></path>
                    <polygon id="Path" fill="#E0003F" points="208.2 7 204.025 20.275 199.35 20.275 195.075 7 199.375 7 201.725 17.275 204.175 7"></polygon>
                    <path d="M220.975,13.375 C220.975,13.925 220.95,14.4 220.9,14.8 L212.675,14.8 C212.808333,15.9166667 213.125,16.7 213.625,17.15 C214.125,17.6 214.816667,17.825 215.7,17.825 C216.233333,17.825 216.75,17.7291667 217.25,17.5375 C217.75,17.3458333 218.291667,17.05 218.875,16.65 L220.5,18.85 C218.95,20.0833333 217.225,20.7 215.325,20.7 C213.175,20.7 211.525,20.0666667 210.375,18.8 C209.225,17.5333333 208.65,15.8333333 208.65,13.7 C208.65,12.35 208.891667,11.1375 209.375,10.0625 C209.858333,8.9875 210.566667,8.1375 211.5,7.5125 C212.433333,6.8875 213.55,6.575 214.85,6.575 C216.766667,6.575 218.266667,7.175 219.35,8.375 C220.433333,9.575 220.975,11.2416667 220.975,13.375 Z M217.1,12.25 C217.066667,10.2166667 216.35,9.2 214.95,9.2 C214.266667,9.2 213.7375,9.45 213.3625,9.95 C212.9875,10.45 212.758333,11.275 212.675,12.425 L217.1,12.425 L217.1,12.25 Z" id="Shape" fill="#E0003F"></path>
                    <path d="M230.4,6.625 C230.883333,6.625 231.325,6.68333333 231.725,6.8 L231.1,10.625 C230.6,10.5083333 230.2,10.45 229.9,10.45 C229.116667,10.45 228.520833,10.7208333 228.1125,11.2625 C227.704167,11.8041667 227.383333,12.6166667 227.15,13.7 L227.15,20.275 L223.2,20.275 L223.2,7 L226.65,7 L226.975,9.575 C227.275,8.65833333 227.729167,7.9375 228.3375,7.4125 C228.945833,6.8875 229.633333,6.625 230.4,6.625 Z" id="Path" fill="#E0003F"></path>
                    <path d="M241.611,10.573 C242.175,10.573 242.691,10.654 243.159,10.816 C243.627,10.978 244.077,11.239 244.509,11.599 L243.717,12.643 C243.381,12.403 243.054,12.226 242.736,12.112 C242.418,11.998 242.067,11.941 241.683,11.941 C240.915,11.941 240.318,12.247 239.892,12.859 C239.466,13.471 239.253,14.377 239.253,15.577 C239.253,16.777 239.463,17.662 239.883,18.232 C240.303,18.802 240.903,19.087 241.683,19.087 C242.055,19.087 242.397,19.03 242.709,18.916 C243.021,18.802 243.369,18.619 243.753,18.367 L244.509,19.447 C243.645,20.143 242.679,20.491 241.611,20.491 C240.327,20.491 239.316,20.059 238.578,19.195 C237.84,18.331 237.471,17.137 237.471,15.613 C237.471,14.605 237.639,13.723 237.975,12.967 C238.311,12.211 238.788,11.623 239.406,11.203 C240.024,10.783 240.759,10.573 241.611,10.573 Z" id="Path" fill="#000000"></path>
                    <path d="M252.969,18.061 C252.969,18.445 253.035,18.73 253.167,18.916 C253.299,19.102 253.497,19.243 253.761,19.339 L253.383,20.491 C252.891,20.431 252.495,20.293 252.195,20.077 C251.895,19.861 251.673,19.525 251.529,19.069 C250.893,20.017 249.951,20.491 248.703,20.491 C247.767,20.491 247.029,20.227 246.489,19.699 C245.949,19.171 245.679,18.481 245.679,17.629 C245.679,16.621 246.042,15.847 246.768,15.307 C247.494,14.767 248.523,14.497 249.855,14.497 L251.313,14.497 L251.313,13.795 C251.313,13.123 251.151,12.643 250.827,12.355 C250.503,12.067 250.005,11.923 249.333,11.923 C248.637,11.923 247.785,12.091 246.777,12.427 L246.363,11.221 C247.539,10.789 248.631,10.573 249.639,10.573 C250.755,10.573 251.589,10.846 252.141,11.392 C252.693,11.938 252.969,12.715 252.969,13.723 L252.969,18.061 Z M249.081,19.249 C250.029,19.249 250.773,18.757 251.313,17.773 L251.313,15.595 L250.071,15.595 C248.319,15.595 247.443,16.243 247.443,17.539 C247.443,18.103 247.581,18.529 247.857,18.817 C248.133,19.105 248.541,19.249 249.081,19.249 Z" id="Shape" fill="#000000"></path>
                    <path d="M260.835,10.573 C261.699,10.573 262.374,10.831 262.86,11.347 C263.346,11.863 263.589,12.571 263.589,13.471 L263.589,20.275 L261.933,20.275 L261.933,13.705 C261.933,13.033 261.807,12.559 261.555,12.283 C261.303,12.007 260.931,11.869 260.439,11.869 C259.935,11.869 259.491,12.013 259.107,12.301 C258.723,12.589 258.363,13.003 258.027,13.543 L258.027,20.275 L256.371,20.275 L256.371,10.789 L257.793,10.789 L257.937,12.193 C258.273,11.689 258.69,11.293 259.188,11.005 C259.686,10.717 260.235,10.573 260.835,10.573 Z" id="Path" fill="#000000"></path>
                    <path d="M279.033,6.973 L279.033,20.275 L277.575,20.275 L277.413,18.961 C277.101,19.441 276.711,19.816 276.243,20.086 C275.775,20.356 275.253,20.491 274.677,20.491 C273.549,20.491 272.67,20.047 272.04,19.159 C271.41,18.271 271.095,17.077 271.095,15.577 C271.095,14.605 271.245,13.741 271.545,12.985 C271.845,12.229 272.277,11.638 272.841,11.212 C273.405,10.786 274.065,10.573 274.821,10.573 C275.793,10.573 276.645,10.963 277.377,11.743 L277.377,6.775 L279.033,6.973 Z M275.037,19.177 C275.541,19.177 275.973,19.06 276.333,18.826 C276.693,18.592 277.041,18.241 277.377,17.773 L277.377,13.129 C277.065,12.721 276.732,12.412 276.378,12.202 C276.024,11.992 275.625,11.887 275.181,11.887 C274.449,11.887 273.882,12.193 273.48,12.805 C273.078,13.417 272.877,14.329 272.877,15.541 C272.877,16.765 273.063,17.677 273.435,18.277 C273.807,18.877 274.341,19.177 275.037,19.177 Z" id="Shape" fill="#000000"></path>
                    <path d="M289.617,15.253 C289.617,15.529 289.605,15.811 289.581,16.099 L283.533,16.099 C283.605,17.143 283.869,17.911 284.325,18.403 C284.781,18.895 285.369,19.141 286.089,19.141 C286.545,19.141 286.965,19.075 287.349,18.943 C287.733,18.811 288.135,18.601 288.555,18.313 L289.275,19.303 C288.267,20.095 287.163,20.491 285.963,20.491 C284.643,20.491 283.614,20.059 282.876,19.195 C282.138,18.331 281.769,17.143 281.769,15.631 C281.769,14.647 281.928,13.774 282.246,13.012 C282.564,12.25 283.02,11.653 283.614,11.221 C284.208,10.789 284.907,10.573 285.711,10.573 C286.971,10.573 287.937,10.987 288.609,11.815 C289.281,12.643 289.617,13.789 289.617,15.253 Z M287.979,14.767 C287.979,13.831 287.793,13.117 287.421,12.625 C287.049,12.133 286.491,11.887 285.747,11.887 C284.391,11.887 283.653,12.883 283.533,14.875 L287.979,14.875 L287.979,14.767 Z" id="Shape" fill="#000000"></path>
                    <polygon id="Path" fill="#000000" points="299.157 10.789 295.935 20.275 293.937 20.275 290.661 10.789 292.461 10.789 294.945 18.799 297.411 10.789"></polygon>
                    <path d="M308.139,15.253 C308.139,15.529 308.127,15.811 308.103,16.099 L302.055,16.099 C302.127,17.143 302.391,17.911 302.847,18.403 C303.303,18.895 303.891,19.141 304.611,19.141 C305.067,19.141 305.487,19.075 305.871,18.943 C306.255,18.811 306.657,18.601 307.077,18.313 L307.797,19.303 C306.789,20.095 305.685,20.491 304.485,20.491 C303.165,20.491 302.136,20.059 301.398,19.195 C300.66,18.331 300.291,17.143 300.291,15.631 C300.291,14.647 300.45,13.774 300.768,13.012 C301.086,12.25 301.542,11.653 302.136,11.221 C302.73,10.789 303.429,10.573 304.233,10.573 C305.493,10.573 306.459,10.987 307.131,11.815 C307.803,12.643 308.139,13.789 308.139,15.253 Z M306.501,14.767 C306.501,13.831 306.315,13.117 305.943,12.625 C305.571,12.133 305.013,11.887 304.269,11.887 C302.913,11.887 302.175,12.883 302.055,14.875 L306.501,14.875 L306.501,14.767 Z" id="Shape" fill="#000000"></path>
                    <path d="M312.675,20.491 C312.063,20.491 311.58,20.308 311.226,19.942 C310.872,19.576 310.695,19.063 310.695,18.403 L310.695,6.973 L312.351,6.775 L312.351,18.367 C312.351,18.631 312.396,18.823 312.486,18.943 C312.576,19.063 312.729,19.123 312.945,19.123 C313.173,19.123 313.377,19.087 313.557,19.015 L313.989,20.167 C313.593,20.383 313.155,20.491 312.675,20.491 Z" id="Path" fill="#000000"></path>
                    <path d="M319.533,10.573 C320.865,10.573 321.9,11.017 322.638,11.905 C323.376,12.793 323.745,13.999 323.745,15.523 C323.745,16.507 323.577,17.374 323.241,18.124 C322.905,18.874 322.419,19.456 321.783,19.87 C321.147,20.284 320.391,20.491 319.515,20.491 C318.183,20.491 317.145,20.047 316.401,19.159 C315.657,18.271 315.285,17.065 315.285,15.541 C315.285,14.557 315.453,13.69 315.789,12.94 C316.125,12.19 316.611,11.608 317.247,11.194 C317.883,10.78 318.645,10.573 319.533,10.573 Z M319.533,11.905 C317.889,11.905 317.067,13.117 317.067,15.541 C317.067,17.953 317.883,19.159 319.515,19.159 C321.147,19.159 321.963,17.947 321.963,15.523 C321.963,13.111 321.153,11.905 319.533,11.905 Z" id="Shape" fill="#000000"></path>
                    <path d="M330.837,10.573 C332.049,10.573 332.937,11.005 333.501,11.869 C334.065,12.733 334.347,13.951 334.347,15.523 C334.347,17.011 334.023,18.211 333.375,19.123 C332.727,20.035 331.809,20.491 330.621,20.491 C329.565,20.491 328.737,20.131 328.137,19.411 L328.137,23.911 L326.481,24.109 L326.481,10.789 L327.903,10.789 L328.029,12.067 C328.377,11.587 328.797,11.218 329.289,10.96 C329.781,10.702 330.297,10.573 330.837,10.573 Z M330.225,19.141 C331.785,19.141 332.565,17.935 332.565,15.523 C332.565,13.099 331.851,11.887 330.423,11.887 C329.955,11.887 329.529,12.025 329.145,12.301 C328.761,12.577 328.425,12.931 328.137,13.363 L328.137,17.989 C328.377,18.361 328.677,18.646 329.037,18.844 C329.397,19.042 329.793,19.141 330.225,19.141 Z" id="Shape" fill="#000000"></path>
                    <path d="M345.507,10.573 C346.839,10.573 347.874,11.017 348.612,11.905 C349.35,12.793 349.719,13.999 349.719,15.523 C349.719,16.507 349.551,17.374 349.215,18.124 C348.879,18.874 348.393,19.456 347.757,19.87 C347.121,20.284 346.365,20.491 345.489,20.491 C344.157,20.491 343.119,20.047 342.375,19.159 C341.631,18.271 341.259,17.065 341.259,15.541 C341.259,14.557 341.427,13.69 341.763,12.94 C342.099,12.19 342.585,11.608 343.221,11.194 C343.857,10.78 344.619,10.573 345.507,10.573 Z M345.507,11.905 C343.863,11.905 343.041,13.117 343.041,15.541 C343.041,17.953 343.857,19.159 345.489,19.159 C347.121,19.159 347.937,17.947 347.937,15.523 C347.937,13.111 347.127,11.905 345.507,11.905 Z" id="Shape" fill="#000000"></path>
                    <polygon id="Path" fill="#000000" points="359.349 10.789 356.127 20.275 354.129 20.275 350.853 10.789 352.653 10.789 355.137 18.799 357.603 10.789"></polygon>
                    <path d="M368.331,15.253 C368.331,15.529 368.319,15.811 368.295,16.099 L362.247,16.099 C362.319,17.143 362.583,17.911 363.039,18.403 C363.495,18.895 364.083,19.141 364.803,19.141 C365.259,19.141 365.679,19.075 366.063,18.943 C366.447,18.811 366.849,18.601 367.269,18.313 L367.989,19.303 C366.981,20.095 365.877,20.491 364.677,20.491 C363.357,20.491 362.328,20.059 361.59,19.195 C360.852,18.331 360.483,17.143 360.483,15.631 C360.483,14.647 360.642,13.774 360.96,13.012 C361.278,12.25 361.734,11.653 362.328,11.221 C362.922,10.789 363.621,10.573 364.425,10.573 C365.685,10.573 366.651,10.987 367.323,11.815 C367.995,12.643 368.331,13.789 368.331,15.253 Z M366.693,14.767 C366.693,13.831 366.507,13.117 366.135,12.625 C365.763,12.133 365.205,11.887 364.461,11.887 C363.105,11.887 362.367,12.883 362.247,14.875 L366.693,14.875 L366.693,14.767 Z" id="Shape" fill="#000000"></path>
                    <path d="M375.099,10.573 C375.435,10.573 375.747,10.609 376.035,10.681 L375.729,12.301 C375.441,12.229 375.165,12.193 374.901,12.193 C374.313,12.193 373.839,12.409 373.479,12.841 C373.119,13.273 372.837,13.945 372.633,14.857 L372.633,20.275 L370.977,20.275 L370.977,10.789 L372.399,10.789 L372.561,12.715 C372.813,12.007 373.155,11.473 373.587,11.113 C374.019,10.753 374.523,10.573 375.099,10.573 Z" id="Path" fill="#000000"></path>
                    <path d="M387.21,6.575 C388.16,6.575 389.051667,6.71666667 389.885,7 C390.718333,7.28333333 391.451667,7.68333333 392.085,8.2 L390.635,10.425 C389.551667,9.74166667 388.46,9.4 387.36,9.4 C386.843333,9.4 386.4475,9.4875 386.1725,9.6625 C385.8975,9.8375 385.76,10.0833333 385.76,10.4 C385.76,10.65 385.8225,10.8541667 385.9475,11.0125 C386.0725,11.1708333 386.326667,11.3333333 386.71,11.5 C387.093333,11.6666667 387.685,11.8666667 388.485,12.1 C389.868333,12.5 390.8975,13.0208333 391.5725,13.6625 C392.2475,14.3041667 392.585,15.1916667 392.585,16.325 C392.585,17.225 392.326667,18.0041667 391.81,18.6625 C391.293333,19.3208333 390.585,19.825 389.685,20.175 C388.785,20.525 387.785,20.7 386.685,20.7 C385.568333,20.7 384.530833,20.525 383.5725,20.175 C382.614167,19.825 381.801667,19.3416667 381.135,18.725 L383.06,16.575 C384.176667,17.4416667 385.351667,17.875 386.585,17.875 C387.185,17.875 387.655833,17.7666667 387.9975,17.55 C388.339167,17.3333333 388.51,17.025 388.51,16.625 C388.51,16.3083333 388.443333,16.0583333 388.31,15.875 C388.176667,15.6916667 387.918333,15.5208333 387.535,15.3625 C387.151667,15.2041667 386.543333,15.0083333 385.71,14.775 C384.393333,14.3916667 383.41,13.8583333 382.76,13.175 C382.11,12.4916667 381.785,11.6416667 381.785,10.625 C381.785,9.85833333 382.005833,9.17083333 382.4475,8.5625 C382.889167,7.95416667 383.5225,7.47083333 384.3475,7.1125 C385.1725,6.75416667 386.126667,6.575 387.21,6.575 Z" id="Path" fill="#117A83"></path>
                    <path d="M406.185,13.375 C406.185,13.925 406.16,14.4 406.11,14.8 L397.885,14.8 C398.018333,15.9166667 398.335,16.7 398.835,17.15 C399.335,17.6 400.026667,17.825 400.91,17.825 C401.443333,17.825 401.96,17.7291667 402.46,17.5375 C402.96,17.3458333 403.501667,17.05 404.085,16.65 L405.71,18.85 C404.16,20.0833333 402.435,20.7 400.535,20.7 C398.385,20.7 396.735,20.0666667 395.585,18.8 C394.435,17.5333333 393.86,15.8333333 393.86,13.7 C393.86,12.35 394.101667,11.1375 394.585,10.0625 C395.068333,8.9875 395.776667,8.1375 396.71,7.5125 C397.643333,6.8875 398.76,6.575 400.06,6.575 C401.976667,6.575 403.476667,7.175 404.56,8.375 C405.643333,9.575 406.185,11.2416667 406.185,13.375 Z M402.31,12.25 C402.276667,10.2166667 401.56,9.2 400.16,9.2 C399.476667,9.2 398.9475,9.45 398.5725,9.95 C398.1975,10.45 397.968333,11.275 397.885,12.425 L402.31,12.425 L402.31,12.25 Z" id="Shape" fill="#117A83"></path>
                    <polygon id="Path" fill="#117A83" points="419.635 7 415.46 20.275 410.785 20.275 406.51 7 410.81 7 413.16 17.275 415.61 7"></polygon>
                    <path d="M432.41,13.375 C432.41,13.925 432.385,14.4 432.335,14.8 L424.11,14.8 C424.243333,15.9166667 424.56,16.7 425.06,17.15 C425.56,17.6 426.251667,17.825 427.135,17.825 C427.668333,17.825 428.185,17.7291667 428.685,17.5375 C429.185,17.3458333 429.726667,17.05 430.31,16.65 L431.935,18.85 C430.385,20.0833333 428.66,20.7 426.76,20.7 C424.61,20.7 422.96,20.0666667 421.81,18.8 C420.66,17.5333333 420.085,15.8333333 420.085,13.7 C420.085,12.35 420.326667,11.1375 420.81,10.0625 C421.293333,8.9875 422.001667,8.1375 422.935,7.5125 C423.868333,6.8875 424.985,6.575 426.285,6.575 C428.201667,6.575 429.701667,7.175 430.785,8.375 C431.868333,9.575 432.41,11.2416667 432.41,13.375 Z M428.535,12.25 C428.501667,10.2166667 427.785,9.2 426.385,9.2 C425.701667,9.2 425.1725,9.45 424.7975,9.95 C424.4225,10.45 424.193333,11.275 424.11,12.425 L428.535,12.425 L428.535,12.25 Z" id="Shape" fill="#117A83"></path>
                    <path d="M441.835,6.625 C442.318333,6.625 442.76,6.68333333 443.16,6.8 L442.535,10.625 C442.035,10.5083333 441.635,10.45 441.335,10.45 C440.551667,10.45 439.955833,10.7208333 439.5475,11.2625 C439.139167,11.8041667 438.818333,12.6166667 438.585,13.7 L438.585,20.275 L434.635,20.275 L434.635,7 L438.085,7 L438.41,9.575 C438.71,8.65833333 439.164167,7.9375 439.7725,7.4125 C440.380833,6.8875 441.068333,6.625 441.835,6.625 Z" id="Path" fill="#117A83"></path>
                    <path d="M454.335,16.425 C454.335,16.925 454.405833,17.2916667 454.5475,17.525 C454.689167,17.7583333 454.918333,17.9333333 455.235,18.05 L454.41,20.625 C453.593333,20.5583333 452.926667,20.3791667 452.41,20.0875 C451.893333,19.7958333 451.493333,19.3333333 451.21,18.7 C450.343333,20.0333333 449.01,20.7 447.21,20.7 C445.893333,20.7 444.843333,20.3166667 444.06,19.55 C443.276667,18.7833333 442.885,17.7833333 442.885,16.55 C442.885,15.1 443.418333,13.9916667 444.485,13.225 C445.551667,12.4583333 447.093333,12.075 449.11,12.075 L450.46,12.075 L450.46,11.5 C450.46,10.7166667 450.293333,10.1791667 449.96,9.8875 C449.626667,9.59583333 449.043333,9.45 448.21,9.45 C447.776667,9.45 447.251667,9.5125 446.635,9.6375 C446.018333,9.7625 445.385,9.93333333 444.735,10.15 L443.835,7.55 C444.668333,7.23333333 445.5225,6.99166667 446.3975,6.825 C447.2725,6.65833333 448.085,6.575 448.835,6.575 C450.735,6.575 452.126667,6.96666667 453.01,7.75 C453.893333,8.53333333 454.335,9.70833333 454.335,11.275 L454.335,16.425 Z M448.36,17.875 C449.26,17.875 449.96,17.45 450.46,16.6 L450.46,14.25 L449.485,14.25 C448.585,14.25 447.914167,14.4083333 447.4725,14.725 C447.030833,15.0416667 446.81,15.5333333 446.81,16.2 C446.81,16.7333333 446.9475,17.1458333 447.2225,17.4375 C447.4975,17.7291667 447.876667,17.875 448.36,17.875 Z" id="Shape" fill="#117A83"></path>
                    <path d="M460.76,20.7 C459.61,20.7 458.714167,20.3708333 458.0725,19.7125 C457.430833,19.0541667 457.11,18.1166667 457.11,16.9 L457.11,1.725 L461.06,1.3 L461.06,16.75 C461.06,17.3 461.285,17.575 461.735,17.575 C461.968333,17.575 462.185,17.5333333 462.385,17.45 L463.16,20.25 C462.443333,20.55 461.643333,20.7 460.76,20.7 Z" id="Path" fill="#117A83"></path>
                    <path d="M477.91,20.3 C477.376667,22.0166667 476.505833,23.3375 475.2975,24.2625 C474.089167,25.1875 472.468333,25.7083333 470.435,25.825 L470.01,23.05 C471.276667,22.8833333 472.214167,22.6 472.8225,22.2 C473.430833,21.8 473.918333,21.1583333 474.285,20.275 L472.935,20.275 L468.885,7 L473.085,7 L475.46,17.75 L478.06,7 L482.135,7 L477.91,20.3 Z" id="Path" fill="#117A83"></path>
                    <path d="M494.91,13.375 C494.91,13.925 494.885,14.4 494.835,14.8 L486.61,14.8 C486.743333,15.9166667 487.06,16.7 487.56,17.15 C488.06,17.6 488.751667,17.825 489.635,17.825 C490.168333,17.825 490.685,17.7291667 491.185,17.5375 C491.685,17.3458333 492.226667,17.05 492.81,16.65 L494.435,18.85 C492.885,20.0833333 491.16,20.7 489.26,20.7 C487.11,20.7 485.46,20.0666667 484.31,18.8 C483.16,17.5333333 482.585,15.8333333 482.585,13.7 C482.585,12.35 482.826667,11.1375 483.31,10.0625 C483.793333,8.9875 484.501667,8.1375 485.435,7.5125 C486.368333,6.8875 487.485,6.575 488.785,6.575 C490.701667,6.575 492.201667,7.175 493.285,8.375 C494.368333,9.575 494.91,11.2416667 494.91,13.375 Z M491.035,12.25 C491.001667,10.2166667 490.285,9.2 488.885,9.2 C488.201667,9.2 487.6725,9.45 487.2975,9.95 C486.9225,10.45 486.693333,11.275 486.61,12.425 L491.035,12.425 L491.035,12.25 Z" id="Shape" fill="#117A83"></path>
                    <path d="M507.435,16.425 C507.435,16.925 507.505833,17.2916667 507.6475,17.525 C507.789167,17.7583333 508.018333,17.9333333 508.335,18.05 L507.51,20.625 C506.693333,20.5583333 506.026667,20.3791667 505.51,20.0875 C504.993333,19.7958333 504.593333,19.3333333 504.31,18.7 C503.443333,20.0333333 502.11,20.7 500.31,20.7 C498.993333,20.7 497.943333,20.3166667 497.16,19.55 C496.376667,18.7833333 495.985,17.7833333 495.985,16.55 C495.985,15.1 496.518333,13.9916667 497.585,13.225 C498.651667,12.4583333 500.193333,12.075 502.21,12.075 L503.56,12.075 L503.56,11.5 C503.56,10.7166667 503.393333,10.1791667 503.06,9.8875 C502.726667,9.59583333 502.143333,9.45 501.31,9.45 C500.876667,9.45 500.351667,9.5125 499.735,9.6375 C499.118333,9.7625 498.485,9.93333333 497.835,10.15 L496.935,7.55 C497.768333,7.23333333 498.6225,6.99166667 499.4975,6.825 C500.3725,6.65833333 501.185,6.575 501.935,6.575 C503.835,6.575 505.226667,6.96666667 506.11,7.75 C506.993333,8.53333333 507.435,9.70833333 507.435,11.275 L507.435,16.425 Z M501.46,17.875 C502.36,17.875 503.06,17.45 503.56,16.6 L503.56,14.25 L502.585,14.25 C501.685,14.25 501.014167,14.4083333 500.5725,14.725 C500.130833,15.0416667 499.91,15.5333333 499.91,16.2 C499.91,16.7333333 500.0475,17.1458333 500.3225,17.4375 C500.5975,17.7291667 500.976667,17.875 501.46,17.875 Z" id="Shape" fill="#117A83"></path>
                    <path d="M517.785,6.625 C518.268333,6.625 518.71,6.68333333 519.11,6.8 L518.485,10.625 C517.985,10.5083333 517.585,10.45 517.285,10.45 C516.501667,10.45 515.905833,10.7208333 515.4975,11.2625 C515.089167,11.8041667 514.768333,12.6166667 514.535,13.7 L514.535,20.275 L510.585,20.275 L510.585,7 L514.035,7 L514.36,9.575 C514.66,8.65833333 515.114167,7.9375 515.7225,7.4125 C516.330833,6.8875 517.018333,6.625 517.785,6.625 Z" id="Path" fill="#117A83"></path>
                    <path d="M524.985,6.575 C525.935,6.575 526.826667,6.71666667 527.66,7 C528.493333,7.28333333 529.226667,7.68333333 529.86,8.2 L528.41,10.425 C527.326667,9.74166667 526.235,9.4 525.135,9.4 C524.618333,9.4 524.2225,9.4875 523.9475,9.6625 C523.6725,9.8375 523.535,10.0833333 523.535,10.4 C523.535,10.65 523.5975,10.8541667 523.7225,11.0125 C523.8475,11.1708333 524.101667,11.3333333 524.485,11.5 C524.868333,11.6666667 525.46,11.8666667 526.26,12.1 C527.643333,12.5 528.6725,13.0208333 529.3475,13.6625 C530.0225,14.3041667 530.36,15.1916667 530.36,16.325 C530.36,17.225 530.101667,18.0041667 529.585,18.6625 C529.068333,19.3208333 528.36,19.825 527.46,20.175 C526.56,20.525 525.56,20.7 524.46,20.7 C523.343333,20.7 522.305833,20.525 521.3475,20.175 C520.389167,19.825 519.576667,19.3416667 518.91,18.725 L520.835,16.575 C521.951667,17.4416667 523.126667,17.875 524.36,17.875 C524.96,17.875 525.430833,17.7666667 525.7725,17.55 C526.114167,17.3333333 526.285,17.025 526.285,16.625 C526.285,16.3083333 526.218333,16.0583333 526.085,15.875 C525.951667,15.6916667 525.693333,15.5208333 525.31,15.3625 C524.926667,15.2041667 524.318333,15.0083333 523.485,14.775 C522.168333,14.3916667 521.185,13.8583333 520.535,13.175 C519.885,12.4916667 519.56,11.6416667 519.56,10.625 C519.56,9.85833333 519.780833,9.17083333 520.2225,8.5625 C520.664167,7.95416667 521.2975,7.47083333 522.1225,7.1125 C522.9475,6.75416667 523.901667,6.575 524.985,6.575 Z" id="Path" fill="#117A83"></path>
                    <polygon id="Path" fill="#117A83" points="18.5 43 15.75 56.275 11.025 56.275 9.25 46.525 7.5 56.275 2.825 56.275 2.84217094e-14 43 4 43 5.375 53.325 7.45 43 11.3 43 13.125 53.325 14.725 43"></polygon>
                    <path d="M24.125,43 L24.125,56.275 L20.175,56.275 L20.175,43 L24.125,43 Z M22.125,36 C22.8083333,36 23.3708333,36.2125 23.8125,36.6375 C24.2541667,37.0625 24.475,37.6 24.475,38.25 C24.475,38.9 24.2541667,39.4375 23.8125,39.8625 C23.3708333,40.2875 22.8083333,40.5 22.125,40.5 C21.4416667,40.5 20.8833333,40.2875 20.45,39.8625 C20.0166667,39.4375 19.8,38.9 19.8,38.25 C19.8,37.6 20.0166667,37.0625 20.45,36.6375 C20.8833333,36.2125 21.4416667,36 22.125,36 Z" id="Shape" fill="#117A83"></path>
                    <path d="M35.55,55.65 C35.0666667,55.9833333 34.5041667,56.2416667 33.8625,56.425 C33.2208333,56.6083333 32.5833333,56.7 31.95,56.7 C29.05,56.6833333 27.6,55.0833333 27.6,51.9 L27.6,45.75 L25.725,45.75 L25.725,43 L27.6,43 L27.6,40.125 L31.55,39.675 L31.55,43 L34.6,43 L34.175,45.75 L31.55,45.75 L31.55,51.85 C31.55,52.4666667 31.65,52.9083333 31.85,53.175 C32.05,53.4416667 32.3666667,53.575 32.8,53.575 C33.25,53.575 33.725,53.4333333 34.225,53.15 L35.55,55.65 Z" id="Path" fill="#117A83"></path>
                    <path d="M44.65,42.575 C45.8,42.575 46.7,42.925 47.35,43.625 C48,44.325 48.325,45.3083333 48.325,46.575 L48.325,56.275 L44.375,56.275 L44.375,47.25 C44.375,46.5833333 44.2666667,46.1208333 44.05,45.8625 C43.8333333,45.6041667 43.525,45.475 43.125,45.475 C42.325,45.475 41.5583333,46.0416667 40.825,47.175 L40.825,56.275 L36.875,56.275 L36.875,37.725 L40.825,37.325 L40.825,44.425 C41.375,43.8083333 41.9583333,43.3458333 42.575,43.0375 C43.1916667,42.7291667 43.8833333,42.575 44.65,42.575 Z" id="Path" fill="#117A83"></path>
                    <path d="M57.05,42.575 C59.0833333,42.575 60.675,43.1958333 61.825,44.4375 C62.975,45.6791667 63.55,47.4166667 63.55,49.65 C63.55,51.0666667 63.2875,52.3041667 62.7625,53.3625 C62.2375,54.4208333 61.4875,55.2416667 60.5125,55.825 C59.5375,56.4083333 58.3833333,56.7 57.05,56.7 C55.0333333,56.7 53.4458333,56.0791667 52.2875,54.8375 C51.1291667,53.5958333 50.55,51.8583333 50.55,49.625 C50.55,48.2083333 50.8125,46.9708333 51.3375,45.9125 C51.8625,44.8541667 52.6125,44.0333333 53.5875,43.45 C54.5625,42.8666667 55.7166667,42.575 57.05,42.575 Z M57.05,45.475 C56.25,45.475 55.65,45.8125 55.25,46.4875 C54.85,47.1625 54.65,48.2083333 54.65,49.625 C54.65,51.075 54.8458333,52.1333333 55.2375,52.8 C55.6291667,53.4666667 56.2333333,53.8 57.05,53.8 C57.85,53.8 58.45,53.4625 58.85,52.7875 C59.25,52.1125 59.45,51.0666667 59.45,49.65 C59.45,48.2 59.2541667,47.1416667 58.8625,46.475 C58.4708333,45.8083333 57.8666667,45.475 57.05,45.475 Z" id="Shape" fill="#117A83"></path>
                    <path d="M77.1,56.275 L73.675,56.275 L73.5,54.6 C72.5333333,56 71.1916667,56.7 69.475,56.7 C68.2583333,56.7 67.3375,56.3333333 66.7125,55.6 C66.0875,54.8666667 65.775,53.8416667 65.775,52.525 L65.775,43 L69.725,43 L69.725,52.025 C69.725,52.675 69.8291667,53.1291667 70.0375,53.3875 C70.2458333,53.6458333 70.5666667,53.775 71,53.775 C71.8333333,53.775 72.55,53.2583333 73.15,52.225 L73.15,43 L77.1,43 L77.1,56.275 Z" id="Path" fill="#117A83"></path>
                    <path d="M88.525,55.65 C88.0416667,55.9833333 87.4791667,56.2416667 86.8375,56.425 C86.1958333,56.6083333 85.5583333,56.7 84.925,56.7 C82.025,56.6833333 80.575,55.0833333 80.575,51.9 L80.575,45.75 L78.7,45.75 L78.7,43 L80.575,43 L80.575,40.125 L84.525,39.675 L84.525,43 L87.575,43 L87.15,45.75 L84.525,45.75 L84.525,51.85 C84.525,52.4666667 84.625,52.9083333 84.825,53.175 C85.025,53.4416667 85.3416667,53.575 85.775,53.575 C86.225,53.575 86.7,53.4333333 87.2,53.15 L88.525,55.65 Z" id="Path" fill="#117A83"></path>
                    <path d="M101.525,42.575 C102.441667,42.575 103.266667,42.7083333 104,42.975 C104.733333,43.2416667 105.425,43.65 106.075,44.2 L104.375,46.55 C103.541667,45.9166667 102.7,45.6 101.85,45.6 C100.966667,45.6 100.3,45.925 99.85,46.575 C99.4,47.225 99.175,48.275 99.175,49.725 C99.175,51.125 99.4,52.1166667 99.85,52.7 C100.3,53.2833333 100.95,53.575 101.8,53.575 C102.25,53.575 102.658333,53.5041667 103.025,53.3625 C103.391667,53.2208333 103.833333,52.9916667 104.35,52.675 L106.075,55.125 C104.758333,56.175 103.266667,56.7 101.6,56.7 C100.25,56.7 99.0833333,56.4125 98.1,55.8375 C97.1166667,55.2625 96.3583333,54.4541667 95.825,53.4125 C95.2916667,52.3708333 95.025,51.15 95.025,49.75 C95.025,48.35 95.2916667,47.1083333 95.825,46.025 C96.3583333,44.9416667 97.1166667,44.0958333 98.1,43.4875 C99.0833333,42.8791667 100.225,42.575 101.525,42.575 Z" id="Path" fill="#117A83"></path>
                    <path d="M118.05,52.425 C118.05,52.925 118.120833,53.2916667 118.2625,53.525 C118.404167,53.7583333 118.633333,53.9333333 118.95,54.05 L118.125,56.625 C117.308333,56.5583333 116.641667,56.3791667 116.125,56.0875 C115.608333,55.7958333 115.208333,55.3333333 114.925,54.7 C114.058333,56.0333333 112.725,56.7 110.925,56.7 C109.608333,56.7 108.558333,56.3166667 107.775,55.55 C106.991667,54.7833333 106.6,53.7833333 106.6,52.55 C106.6,51.1 107.133333,49.9916667 108.2,49.225 C109.266667,48.4583333 110.808333,48.075 112.825,48.075 L114.175,48.075 L114.175,47.5 C114.175,46.7166667 114.008333,46.1791667 113.675,45.8875 C113.341667,45.5958333 112.758333,45.45 111.925,45.45 C111.491667,45.45 110.966667,45.5125 110.35,45.6375 C109.733333,45.7625 109.1,45.9333333 108.45,46.15 L107.55,43.55 C108.383333,43.2333333 109.2375,42.9916667 110.1125,42.825 C110.9875,42.6583333 111.8,42.575 112.55,42.575 C114.45,42.575 115.841667,42.9666667 116.725,43.75 C117.608333,44.5333333 118.05,45.7083333 118.05,47.275 L118.05,52.425 Z M112.075,53.875 C112.975,53.875 113.675,53.45 114.175,52.6 L114.175,50.25 L113.2,50.25 C112.3,50.25 111.629167,50.4083333 111.1875,50.725 C110.745833,51.0416667 110.525,51.5333333 110.525,52.2 C110.525,52.7333333 110.6625,53.1458333 110.9375,53.4375 C111.2125,53.7291667 111.591667,53.875 112.075,53.875 Z" id="Shape" fill="#117A83"></path>
                    <path d="M132.4,56.275 L128.975,56.275 L128.8,54.6 C127.833333,56 126.491667,56.7 124.775,56.7 C123.558333,56.7 122.6375,56.3333333 122.0125,55.6 C121.3875,54.8666667 121.075,53.8416667 121.075,52.525 L121.075,43 L125.025,43 L125.025,52.025 C125.025,52.675 125.129167,53.1291667 125.3375,53.3875 C125.545833,53.6458333 125.866667,53.775 126.3,53.775 C127.133333,53.775 127.85,53.2583333 128.45,52.225 L128.45,43 L132.4,43 L132.4,56.275 Z" id="Path" fill="#117A83"></path>
                    <path d="M140.175,42.575 C141.125,42.575 142.016667,42.7166667 142.85,43 C143.683333,43.2833333 144.416667,43.6833333 145.05,44.2 L143.6,46.425 C142.516667,45.7416667 141.425,45.4 140.325,45.4 C139.808333,45.4 139.4125,45.4875 139.1375,45.6625 C138.8625,45.8375 138.725,46.0833333 138.725,46.4 C138.725,46.65 138.7875,46.8541667 138.9125,47.0125 C139.0375,47.1708333 139.291667,47.3333333 139.675,47.5 C140.058333,47.6666667 140.65,47.8666667 141.45,48.1 C142.833333,48.5 143.8625,49.0208333 144.5375,49.6625 C145.2125,50.3041667 145.55,51.1916667 145.55,52.325 C145.55,53.225 145.291667,54.0041667 144.775,54.6625 C144.258333,55.3208333 143.55,55.825 142.65,56.175 C141.75,56.525 140.75,56.7 139.65,56.7 C138.533333,56.7 137.495833,56.525 136.5375,56.175 C135.579167,55.825 134.766667,55.3416667 134.1,54.725 L136.025,52.575 C137.141667,53.4416667 138.316667,53.875 139.55,53.875 C140.15,53.875 140.620833,53.7666667 140.9625,53.55 C141.304167,53.3333333 141.475,53.025 141.475,52.625 C141.475,52.3083333 141.408333,52.0583333 141.275,51.875 C141.141667,51.6916667 140.883333,51.5208333 140.5,51.3625 C140.116667,51.2041667 139.508333,51.0083333 138.675,50.775 C137.358333,50.3916667 136.375,49.8583333 135.725,49.175 C135.075,48.4916667 134.75,47.6416667 134.75,46.625 C134.75,45.8583333 134.970833,45.1708333 135.4125,44.5625 C135.854167,43.9541667 136.4875,43.4708333 137.3125,43.1125 C138.1375,42.7541667 139.091667,42.575 140.175,42.575 Z" id="Path" fill="#117A83"></path>
                    <path d="M151.525,43 L151.525,56.275 L147.575,56.275 L147.575,43 L151.525,43 Z M149.525,36 C150.208333,36 150.770833,36.2125 151.2125,36.6375 C151.654167,37.0625 151.875,37.6 151.875,38.25 C151.875,38.9 151.654167,39.4375 151.2125,39.8625 C150.770833,40.2875 150.208333,40.5 149.525,40.5 C148.841667,40.5 148.283333,40.2875 147.85,39.8625 C147.416667,39.4375 147.2,38.9 147.2,38.25 C147.2,37.6 147.416667,37.0625 147.85,36.6375 C148.283333,36.2125 148.841667,36 149.525,36 Z" id="Shape" fill="#117A83"></path>
                    <path d="M162.4,42.575 C163.55,42.575 164.45,42.925 165.1,43.625 C165.75,44.325 166.075,45.3083333 166.075,46.575 L166.075,56.275 L162.125,56.275 L162.125,47.25 C162.125,46.5833333 162.020833,46.1208333 161.8125,45.8625 C161.604167,45.6041667 161.291667,45.475 160.875,45.475 C160.075,45.475 159.308333,46.05 158.575,47.2 L158.575,56.275 L154.625,56.275 L154.625,43 L158.075,43 L158.35,44.575 C158.916667,43.9083333 159.529167,43.4083333 160.1875,43.075 C160.845833,42.7416667 161.583333,42.575 162.4,42.575 Z" id="Path" fill="#117A83"></path>
                    <path d="M181.275,43.775 C180.408333,44.125 179.133333,44.3 177.45,44.3 C178.316667,44.6666667 178.95,45.1166667 179.35,45.65 C179.75,46.1833333 179.95,46.875 179.95,47.725 C179.95,48.575 179.725,49.3375 179.275,50.0125 C178.825,50.6875 178.179167,51.2166667 177.3375,51.6 C176.495833,51.9833333 175.508333,52.175 174.375,52.175 C173.841667,52.175 173.333333,52.125 172.85,52.025 C172.716667,52.0916667 172.6125,52.1958333 172.5375,52.3375 C172.4625,52.4791667 172.425,52.625 172.425,52.775 C172.425,53.025 172.520833,53.2208333 172.7125,53.3625 C172.904167,53.5041667 173.291667,53.575 173.875,53.575 L175.875,53.575 C176.891667,53.575 177.783333,53.7416667 178.55,54.075 C179.316667,54.4083333 179.908333,54.8666667 180.325,55.45 C180.741667,56.0333333 180.95,56.6916667 180.95,57.425 C180.95,58.8083333 180.354167,59.8875 179.1625,60.6625 C177.970833,61.4375 176.25,61.825 174,61.825 C172.383333,61.825 171.108333,61.6541667 170.175,61.3125 C169.241667,60.9708333 168.5875,60.4916667 168.2125,59.875 C167.8375,59.2583333 167.65,58.4833333 167.65,57.55 L171.2,57.55 C171.2,57.95 171.279167,58.2666667 171.4375,58.5 C171.595833,58.7333333 171.883333,58.9083333 172.3,59.025 C172.716667,59.1416667 173.316667,59.2 174.1,59.2 C175.183333,59.2 175.933333,59.0708333 176.35,58.8125 C176.766667,58.5541667 176.975,58.1833333 176.975,57.7 C176.975,57.3 176.816667,56.9833333 176.5,56.75 C176.183333,56.5166667 175.708333,56.4 175.075,56.4 L173.15,56.4 C171.783333,56.4 170.7625,56.1541667 170.0875,55.6625 C169.4125,55.1708333 169.075,54.5416667 169.075,53.775 C169.075,53.2916667 169.216667,52.8208333 169.5,52.3625 C169.783333,51.9041667 170.166667,51.525 170.65,51.225 C169.816667,50.775 169.2125,50.2458333 168.8375,49.6375 C168.4625,49.0291667 168.275,48.2916667 168.275,47.425 C168.275,45.9416667 168.808333,44.7625 169.875,43.8875 C170.941667,43.0125 172.35,42.575 174.1,42.575 C175.433333,42.6083333 176.5625,42.475 177.4875,42.175 C178.4125,41.875 179.366667,41.4333333 180.35,40.85 L181.275,43.775 Z M174.2,45.175 C173.583333,45.175 173.095833,45.3708333 172.7375,45.7625 C172.379167,46.1541667 172.2,46.6916667 172.2,47.375 C172.2,48.0916667 172.379167,48.6458333 172.7375,49.0375 C173.095833,49.4291667 173.583333,49.625 174.2,49.625 C174.85,49.625 175.345833,49.4333333 175.6875,49.05 C176.029167,48.6666667 176.2,48.0916667 176.2,47.325 C176.2,45.8916667 175.533333,45.175 174.2,45.175 Z" id="Shape" fill="#117A83"></path>
                    <path d="M193.425,42.575 C194.375,42.575 195.266667,42.7166667 196.1,43 C196.933333,43.2833333 197.666667,43.6833333 198.3,44.2 L196.85,46.425 C195.766667,45.7416667 194.675,45.4 193.575,45.4 C193.058333,45.4 192.6625,45.4875 192.3875,45.6625 C192.1125,45.8375 191.975,46.0833333 191.975,46.4 C191.975,46.65 192.0375,46.8541667 192.1625,47.0125 C192.2875,47.1708333 192.541667,47.3333333 192.925,47.5 C193.308333,47.6666667 193.9,47.8666667 194.7,48.1 C196.083333,48.5 197.1125,49.0208333 197.7875,49.6625 C198.4625,50.3041667 198.8,51.1916667 198.8,52.325 C198.8,53.225 198.541667,54.0041667 198.025,54.6625 C197.508333,55.3208333 196.8,55.825 195.9,56.175 C195,56.525 194,56.7 192.9,56.7 C191.783333,56.7 190.745833,56.525 189.7875,56.175 C188.829167,55.825 188.016667,55.3416667 187.35,54.725 L189.275,52.575 C190.391667,53.4416667 191.566667,53.875 192.8,53.875 C193.4,53.875 193.870833,53.7666667 194.2125,53.55 C194.554167,53.3333333 194.725,53.025 194.725,52.625 C194.725,52.3083333 194.658333,52.0583333 194.525,51.875 C194.391667,51.6916667 194.133333,51.5208333 193.75,51.3625 C193.366667,51.2041667 192.758333,51.0083333 191.925,50.775 C190.608333,50.3916667 189.625,49.8583333 188.975,49.175 C188.325,48.4916667 188,47.6416667 188,46.625 C188,45.8583333 188.220833,45.1708333 188.6625,44.5625 C189.104167,43.9541667 189.7375,43.4708333 190.5625,43.1125 C191.3875,42.7541667 192.341667,42.575 193.425,42.575 Z" id="Path" fill="#117A83"></path>
                    <path d="M207.675,56.3 C207.141667,58.0166667 206.270833,59.3375 205.0625,60.2625 C203.854167,61.1875 202.233333,61.7083333 200.2,61.825 L199.775,59.05 C201.041667,58.8833333 201.979167,58.6 202.5875,58.2 C203.195833,57.8 203.683333,57.1583333 204.05,56.275 L202.7,56.275 L198.65,43 L202.85,43 L205.225,53.75 L207.825,43 L211.9,43 L207.675,56.3 Z" id="Path" fill="#117A83"></path>
                    <path d="M227.975,42.575 C229.025,42.575 229.866667,42.9291667 230.5,43.6375 C231.133333,44.3458333 231.45,45.325 231.45,46.575 L231.45,56.275 L227.5,56.275 L227.5,47.25 C227.5,46.0666667 227.125,45.475 226.375,45.475 C225.958333,45.475 225.591667,45.6166667 225.275,45.9 C224.958333,46.1833333 224.65,46.6166667 224.35,47.2 L224.35,56.275 L220.4,56.275 L220.4,47.25 C220.4,46.0666667 220.025,45.475 219.275,45.475 C218.875,45.475 218.5125,45.6208333 218.1875,45.9125 C217.8625,46.2041667 217.55,46.6333333 217.25,47.2 L217.25,56.275 L213.3,56.275 L213.3,43 L216.75,43 L217.025,44.55 C217.541667,43.8833333 218.1125,43.3875 218.7375,43.0625 C219.3625,42.7375 220.075,42.575 220.875,42.575 C221.625,42.575 222.270833,42.7583333 222.8125,43.125 C223.354167,43.4916667 223.75,44.0083333 224,44.675 C224.533333,43.9583333 225.120833,43.4291667 225.7625,43.0875 C226.404167,42.7458333 227.141667,42.575 227.975,42.575 Z" id="Path" fill="#117A83"></path>
                    <path d="M241.925,42.575 C243.591667,42.575 244.833333,43.1916667 245.65,44.425 C246.466667,45.6583333 246.875,47.3833333 246.875,49.6 C246.875,50.9666667 246.6625,52.1875 246.2375,53.2625 C245.8125,54.3375 245.2,55.1791667 244.4,55.7875 C243.6,56.3958333 242.666667,56.7 241.6,56.7 C240.266667,56.7 239.191667,56.2416667 238.375,55.325 L238.375,61.4 L234.425,61.825 L234.425,43 L237.9,43 L238.1,44.475 C238.616667,43.825 239.208333,43.3458333 239.875,43.0375 C240.541667,42.7291667 241.225,42.575 241.925,42.575 Z M240.4,53.8 C241.983333,53.8 242.775,52.4166667 242.775,49.65 C242.775,48.0833333 242.6,46.9958333 242.25,46.3875 C241.9,45.7791667 241.375,45.475 240.675,45.475 C240.225,45.475 239.804167,45.6083333 239.4125,45.875 C239.020833,46.1416667 238.675,46.525 238.375,47.025 L238.375,52.625 C238.908333,53.4083333 239.583333,53.8 240.4,53.8 Z" id="Shape" fill="#117A83"></path>
                    <path d="M257.675,55.65 C257.191667,55.9833333 256.629167,56.2416667 255.9875,56.425 C255.345833,56.6083333 254.708333,56.7 254.075,56.7 C251.175,56.6833333 249.725,55.0833333 249.725,51.9 L249.725,45.75 L247.85,45.75 L247.85,43 L249.725,43 L249.725,40.125 L253.675,39.675 L253.675,43 L256.725,43 L256.3,45.75 L253.675,45.75 L253.675,51.85 C253.675,52.4666667 253.775,52.9083333 253.975,53.175 C254.175,53.4416667 254.491667,53.575 254.925,53.575 C255.375,53.575 255.85,53.4333333 256.35,53.15 L257.675,55.65 Z" id="Path" fill="#117A83"></path>
                    <path d="M264.3,42.575 C266.333333,42.575 267.925,43.1958333 269.075,44.4375 C270.225,45.6791667 270.8,47.4166667 270.8,49.65 C270.8,51.0666667 270.5375,52.3041667 270.0125,53.3625 C269.4875,54.4208333 268.7375,55.2416667 267.7625,55.825 C266.7875,56.4083333 265.633333,56.7 264.3,56.7 C262.283333,56.7 260.695833,56.0791667 259.5375,54.8375 C258.379167,53.5958333 257.8,51.8583333 257.8,49.625 C257.8,48.2083333 258.0625,46.9708333 258.5875,45.9125 C259.1125,44.8541667 259.8625,44.0333333 260.8375,43.45 C261.8125,42.8666667 262.966667,42.575 264.3,42.575 Z M264.3,45.475 C263.5,45.475 262.9,45.8125 262.5,46.4875 C262.1,47.1625 261.9,48.2083333 261.9,49.625 C261.9,51.075 262.095833,52.1333333 262.4875,52.8 C262.879167,53.4666667 263.483333,53.8 264.3,53.8 C265.1,53.8 265.7,53.4625 266.1,52.7875 C266.5,52.1125 266.7,51.0666667 266.7,49.65 C266.7,48.2 266.504167,47.1416667 266.1125,46.475 C265.720833,45.8083333 265.116667,45.475 264.3,45.475 Z" id="Shape" fill="#117A83"></path>
                    <path d="M287.825,42.575 C288.875,42.575 289.716667,42.9291667 290.35,43.6375 C290.983333,44.3458333 291.3,45.325 291.3,46.575 L291.3,56.275 L287.35,56.275 L287.35,47.25 C287.35,46.0666667 286.975,45.475 286.225,45.475 C285.808333,45.475 285.441667,45.6166667 285.125,45.9 C284.808333,46.1833333 284.5,46.6166667 284.2,47.2 L284.2,56.275 L280.25,56.275 L280.25,47.25 C280.25,46.0666667 279.875,45.475 279.125,45.475 C278.725,45.475 278.3625,45.6208333 278.0375,45.9125 C277.7125,46.2041667 277.4,46.6333333 277.1,47.2 L277.1,56.275 L273.15,56.275 L273.15,43 L276.6,43 L276.875,44.55 C277.391667,43.8833333 277.9625,43.3875 278.5875,43.0625 C279.2125,42.7375 279.925,42.575 280.725,42.575 C281.475,42.575 282.120833,42.7583333 282.6625,43.125 C283.204167,43.4916667 283.6,44.0083333 283.85,44.675 C284.383333,43.9583333 284.970833,43.4291667 285.6125,43.0875 C286.254167,42.7458333 286.991667,42.575 287.825,42.575 Z" id="Path" fill="#117A83"></path>
                    <path d="M298.95,42.575 C299.9,42.575 300.791667,42.7166667 301.625,43 C302.458333,43.2833333 303.191667,43.6833333 303.825,44.2 L302.375,46.425 C301.291667,45.7416667 300.2,45.4 299.1,45.4 C298.583333,45.4 298.1875,45.4875 297.9125,45.6625 C297.6375,45.8375 297.5,46.0833333 297.5,46.4 C297.5,46.65 297.5625,46.8541667 297.6875,47.0125 C297.8125,47.1708333 298.066667,47.3333333 298.45,47.5 C298.833333,47.6666667 299.425,47.8666667 300.225,48.1 C301.608333,48.5 302.6375,49.0208333 303.3125,49.6625 C303.9875,50.3041667 304.325,51.1916667 304.325,52.325 C304.325,53.225 304.066667,54.0041667 303.55,54.6625 C303.033333,55.3208333 302.325,55.825 301.425,56.175 C300.525,56.525 299.525,56.7 298.425,56.7 C297.308333,56.7 296.270833,56.525 295.3125,56.175 C294.354167,55.825 293.541667,55.3416667 292.875,54.725 L294.8,52.575 C295.916667,53.4416667 297.091667,53.875 298.325,53.875 C298.925,53.875 299.395833,53.7666667 299.7375,53.55 C300.079167,53.3333333 300.25,53.025 300.25,52.625 C300.25,52.3083333 300.183333,52.0583333 300.05,51.875 C299.916667,51.6916667 299.658333,51.5208333 299.275,51.3625 C298.891667,51.2041667 298.283333,51.0083333 297.45,50.775 C296.133333,50.3916667 295.15,49.8583333 294.5,49.175 C293.85,48.4916667 293.525,47.6416667 293.525,46.625 C293.525,45.8583333 293.745833,45.1708333 294.1875,44.5625 C294.629167,43.9541667 295.2625,43.4708333 296.0875,43.1125 C296.9125,42.7541667 297.866667,42.575 298.95,42.575 Z" id="Path" fill="#117A83"></path>
                    <path d="M307.8,52.175 C308.416667,52.175 308.945833,52.3958333 309.3875,52.8375 C309.829167,53.2791667 310.05,53.8083333 310.05,54.425 C310.05,55.0583333 309.829167,55.5958333 309.3875,56.0375 C308.945833,56.4791667 308.416667,56.7 307.8,56.7 C307.166667,56.7 306.629167,56.4791667 306.1875,56.0375 C305.745833,55.5958333 305.525,55.0583333 305.525,54.425 C305.525,53.8083333 305.745833,53.2791667 306.1875,52.8375 C306.629167,52.3958333 307.166667,52.175 307.8,52.175 Z" id="Path" fill="#117A83"></path>
                </g>
                <g id="Group" transform="translate(725.540601, 32.332422)">
                    <path d="M79.3468997,57.7129781 C79.3238573,57.7385495 79.3031418,57.7661255 79.2849997,57.7953781 C79.2543997,57.8365781 79.2231997,57.8777781 79.1823997,57.9292781 C75.8344997,62.5236781 66.8723997,73.2471781 50.9260997,81.7662781 C49.8752997,82.3327781 48.7833997,82.8890781 47.6606997,83.4350781 C41.3683594,86.5138715 35.84823,90.9671917 31.5081997,96.4659781 C29.0666997,99.4121781 27.2433997,101.997778 25.4200997,103.573878 C25.1471437,103.819534 24.8581018,104.046706 24.5548997,104.253878 C24.522532,104.272083 24.491608,104.292744 24.4623997,104.315678 C24.3331592,104.405556 24.1989821,104.488119 24.0604997,104.562978 C23.9286844,104.645133 23.7909757,104.71743 23.6484997,104.779278 C23.6384997,104.789278 23.6173997,104.789278 23.5966997,104.799878 C23.4422997,104.872078 23.2878997,104.933878 23.1228997,104.995678 C22.7978029,105.100253 22.4632357,105.1727 22.1239997,105.211978 C21.9633829,105.232864 21.8015685,105.242885 21.6395997,105.242885 C21.1616809,105.242885 20.6863397,105.172847 20.2281997,105.036778 C19.9279195,104.959807 19.6350429,104.856403 19.3529997,104.727778 C19.2498997,104.686578 19.1366997,104.635078 19.0229997,104.583578 C18.7965997,104.470278 18.5491997,104.346678 18.3021997,104.202378 C17.5966393,103.791925 16.92186,103.330709 16.2831997,102.822378 C15.8500997,102.482378 15.4074997,102.111578 14.9436997,101.689278 C14.4804997,101.277178 13.9859997,100.813678 13.4809997,100.309278 C12.9759997,99.8147781 12.4509997,99.2692781 11.8945997,98.6816781 C7.77459974,94.2933781 4.47759974,87.5254781 2.40729974,79.5626781 C-1.00270026,66.4389781 -1.06440026,50.0291781 4.00369974,35.5662781 C6.84460688,27.0486824 11.8077963,19.394846 18.4253997,13.3262781 C22.5585494,9.63322162 27.3073912,6.69368967 32.4560997,4.64127814 C36.488925,3.11359351 40.7223714,2.18013738 45.0236997,1.87017814 C45.1162997,1.86017814 45.2193997,1.86017814 45.3118997,1.84957814 C45.236703,2.05236373 45.2584472,2.27841176 45.3709206,2.46314481 C45.4833939,2.64787785 45.6742259,2.77097805 45.8888997,2.79727814 C46.0125997,2.80727814 46.1362997,2.82817814 46.2595997,2.84877814 C46.3773929,2.86350491 46.4943732,2.88413083 46.6100997,2.91057814 C68.0569997,6.19667814 71.1780997,25.9852781 71.1780997,25.9852781 L78.6360997,56.3119781 C78.6789867,56.4885442 78.7375525,56.6609286 78.8110997,56.8270781 C78.9424519,57.1484906 79.1232336,57.4473979 79.3468997,57.7129781 Z" id="Path" fill="#AF7969"></path>
                    <path d="M131.9142,16.4772781 C130.134587,19.4990988 128.008296,22.3028409 125.5785,24.8315781 C119.3671,31.6302781 116.5031,38.2333781 112.2076,43.5693781 C108.314,48.4109781 103.2459,52.2224781 93.4285997,54.2311781 C92.8002997,54.3547781 92.1614997,54.4783781 91.5025997,54.5916781 C90.4312997,54.7667781 89.3080997,54.9316781 88.1340997,55.0758781 C87.3509997,55.1685781 86.5370997,55.2509781 85.6925997,55.3333781 C85.6100997,55.3433781 85.5175997,55.3433781 85.4350997,55.3539781 C85.4255693,55.054437 85.3806576,54.757073 85.3012997,54.4680781 C82.6778408,44.8920208 80.539255,35.1896847 78.8936997,25.3980781 C77.1010997,14.2728781 80.2636997,7.83457814 82.5710997,4.78537814 C82.6977375,4.60990595 82.7393973,4.38704812 82.6846997,4.17767814 C82.7772997,4.14677814 82.8597997,4.12617814 82.9522997,4.09527814 C83.2098997,4.02317814 83.4673997,3.94067814 83.7354997,3.86867814 C85.7954997,3.27117814 88.0928997,2.70457814 90.5954997,2.24107814 C97.6249861,0.92731217 104.808549,0.646218149 111.9192,1.40667814 C130.4203,3.39477814 136.8792,7.39167814 131.9142,16.4772781 Z" id="Path" fill="#AF7969"></path>
                    <path d="M46.6305997,2.90037814 C46.6199997,2.90037814 46.6199997,2.90037814 46.6098997,2.91037814 C46.3729997,2.96197814 46.1461997,3.01347814 45.9198997,3.06487814 C44.1189263,3.47034272 42.3520209,4.01453314 40.6349997,4.69257814 C34.2820615,7.22070361 28.5533594,11.0972595 23.8442997,16.0546781 C18.3074956,22.0243999 14.1724056,29.1542776 11.7403997,36.9246781 C6.22919974,53.7876781 7.52739974,73.0509781 12.8529997,86.6175781 L12.8629997,86.6381781 C14.4908151,91.0840559 16.9365399,95.1859055 20.0737997,98.7317781 C21.6868581,100.523014 23.4782064,102.145256 25.4200997,103.573378 C25.1471437,103.819034 24.8581018,104.046206 24.5548997,104.253378 C24.522532,104.271583 24.491608,104.292244 24.4623997,104.315178 C24.3331592,104.405056 24.1989821,104.487619 24.0604997,104.562478 C23.9286844,104.644633 23.7909757,104.71693 23.6484997,104.778778 C23.6384997,104.788778 23.6173997,104.788778 23.5966997,104.799378 C23.4422997,104.871578 23.2878997,104.933378 23.1228997,104.995178 C22.7978029,105.099753 22.4632357,105.1722 22.1239997,105.211478 C21.9633829,105.232364 21.8015685,105.242385 21.6395997,105.242385 C21.1616809,105.242385 20.6863397,105.172347 20.2281997,105.036278 C19.9279195,104.959307 19.6350429,104.855903 19.3529997,104.727278 C19.2498997,104.686078 19.1366997,104.634578 19.0229997,104.583078 C18.7965997,104.469778 18.5491997,104.346178 18.3021997,104.201878 C17.5966393,103.791425 16.92186,103.330209 16.2831997,102.821878 C15.8500997,102.481878 15.4074997,102.111078 14.9436997,101.688778 C14.4804997,101.276678 13.9859997,100.813178 13.4809997,100.308778 C12.9759997,99.8043781 12.4409997,99.2687781 11.8945997,98.6811781 C7.77459974,94.2928781 4.47759974,87.5249781 2.40729974,79.5621781 C-1.00270026,66.4384781 -1.06440026,50.0286781 4.00369974,35.5657781 C6.84460688,27.0481824 11.8077963,19.394346 18.4253997,13.3257781 C22.558588,9.63289957 27.3074275,6.6935383 32.4560997,4.64127814 C36.488925,3.11359351 40.7223714,2.18013738 45.0236997,1.87017814 C45.1162997,1.86017814 45.2193997,1.86017814 45.3118997,1.84957814 C45.236703,2.05236373 45.2584472,2.27841176 45.3709206,2.46314481 C45.4833939,2.64787785 45.6742259,2.77097805 45.8888997,2.79727814 C46.0125997,2.80727814 46.1362997,2.82817814 46.2595997,2.84877814 C46.3828997,2.86937814 46.5067997,2.88997814 46.6305997,2.90037814 Z" id="Path" fill="#96685A"></path>
                    <path d="M87.0797997,23.7704781 C85.3311997,12.2999781 88.3104997,5.55047814 90.5968997,2.24047814 C87.9256741,2.73875045 85.2842018,3.38508022 82.6846997,4.17647814 C82.742992,4.38537271 82.7007839,4.60949715 82.5704997,4.78287814 C80.2672997,7.83137814 77.0984997,14.2687781 78.8927997,25.3980781 C80.5359353,35.1893743 82.676371,44.8906913 85.3057997,54.4643781 C85.3842074,54.7558727 85.4266231,55.0558722 85.4320997,55.3576781 C88.1154111,55.1329746 90.7837813,54.7559332 93.4242997,54.2283781 C91.9120997,48.3740781 88.9942997,36.3379781 87.0797997,23.7704781 Z" id="Path" fill="#96685A"></path>
                    <path d="M85.6925997,55.3333781 C85.719099,55.9936305 85.5659588,56.6487014 85.2494997,57.2287781 C85.2007925,57.3283775 85.1456768,57.424713 85.0844997,57.5171781 C85.0230997,57.6099781 84.9612997,57.7026781 84.8887997,57.7953781 L84.8887997,57.8053781 C84.7731272,57.9558744 84.6458374,58.0970734 84.5080997,58.2276781 C84.4850419,58.2417016 84.4641832,58.2590557 84.4461997,58.2791781 C84.2783784,58.4268691 84.0992659,58.5612119 83.9104997,58.6809781 C83.717478,58.7988546 83.5141012,58.8988694 83.3028997,58.9797781 C82.8229407,59.1602307 82.3103147,59.2374108 81.7984997,59.2062781 C80.7889434,59.1544096 79.8441843,58.6931349 79.1823997,57.9289781 C78.8215817,57.520548 78.560557,57.0338954 78.4198997,56.5073781 C78.40135,56.4643714 78.3875354,56.4194738 78.3786997,56.3734781 L70.9203997,26.0467781 C70.1585584,22.3285134 68.6860118,18.7923032 66.5835997,15.6322781 C63.3800997,10.7392781 57.1786997,4.58937814 45.9197997,3.06477814 C45.8991997,3.06477814 45.8785997,3.05477814 45.8579997,3.05477814 C45.5827964,3.0237488 45.3340301,2.87642393 45.1745348,2.65001514 C45.0150395,2.42360635 44.9600661,2.13976274 45.0234997,1.87017814 C45.1098605,1.47931133 45.4302981,1.18344613 45.8267997,1.12847814 C47.0424997,0.932778138 48.4538997,0.737078138 50.0196997,0.561978138 C58.1574997,-0.344521862 70.4877997,-0.622721862 82.3240997,3.43597814 C82.6251905,3.54524449 82.8576982,3.7892629 82.9522997,4.09527814 C83.0260926,4.38727565 82.9658182,4.69697003 82.7878997,4.93997814 C80.6551997,7.76247814 77.3484997,14.1599781 79.1612997,25.3568781 C80.7936806,35.1408476 82.9324201,44.8335673 85.5688997,54.3959781 C85.6505063,54.7017788 85.6920868,55.0168763 85.6925997,55.3333781 L85.6925997,55.3333781 Z" id="Path" fill="#AF7969"></path>
                    <path d="M85.2494997,57.2287781 C85.2007925,57.3283775 85.1456768,57.424713 85.0844997,57.5171781 C85.0230997,57.6099781 84.9612997,57.7026781 84.8887997,57.7953781 L84.8887997,57.8053781 C84.7655997,57.9495781 84.6418997,58.0937781 84.5080997,58.2276781 C84.4850419,58.2417016 84.4641832,58.2590557 84.4461997,58.2791781 C84.2783784,58.4268691 84.0992659,58.5612119 83.9104997,58.6809781 C83.717478,58.7988546 83.5141012,58.8988694 83.3028997,58.9797781 C82.8229407,59.1602307 82.3103147,59.2374108 81.7984997,59.2062781 C80.7889434,59.1544096 79.8441843,58.6931349 79.1823997,57.9289781 C78.8215817,57.520548 78.560557,57.0338954 78.4198997,56.5073781 C78.40135,56.4643714 78.3875354,56.4194738 78.3786997,56.3734781 L70.9203997,26.0467781 C70.1585584,22.3285134 68.6860118,18.7923032 66.5835997,15.6322781 C63.3800997,10.7392781 57.1786997,4.58937814 45.9197997,3.06477814 C45.8991997,3.06477814 45.8785997,3.05477814 45.8579997,3.05477814 C45.5827964,3.0237488 45.3340301,2.87642393 45.1745348,2.65001514 C45.0150395,2.42360635 44.9600661,2.13976274 45.0234997,1.87017814 C45.1098605,1.47931133 45.4302981,1.18344613 45.8267997,1.12847814 C47.0424997,0.932778138 48.4538997,0.737078138 50.0196997,0.561978138 C50.0092749,1.05232136 50.3764219,1.46881255 50.8641997,1.51997814 C62.1748997,3.03427814 68.3862997,9.19437814 71.6003997,14.0873781 C73.6967821,17.2543741 75.1687717,20.7927426 75.9371997,24.5121781 L83.3848997,54.8393781 C83.637922,55.864978 84.3161425,56.7340867 85.2494997,57.2287781 L85.2494997,57.2287781 Z" id="Path" fill="#96685A"></path>
                    <path d="M31.5081997,96.4659781 C29.0666997,99.4121781 27.2433997,101.997778 25.4200997,103.573878 C25.1471437,103.819534 24.8581018,104.046706 24.5548997,104.253878 C24.522532,104.272083 24.491608,104.292744 24.4623997,104.315678 C24.3331592,104.405556 24.1989821,104.488119 24.0604997,104.562978 C23.9286844,104.645133 23.7909757,104.71743 23.6484997,104.779278 C23.6384997,104.789278 23.6173997,104.789278 23.5966997,104.799878 C23.4422997,104.872078 23.2878997,104.933878 23.1228997,104.995678 C22.7978029,105.100253 22.4632357,105.1727 22.1239997,105.211978 C21.9633829,105.232864 21.8015685,105.243186 21.6395997,105.242891 C21.1616809,105.242258 20.6863397,105.172847 20.2281997,105.036778 C19.9279195,104.959807 19.6350429,104.856403 19.3529997,104.727778 C19.2498997,104.686578 19.1366997,104.635078 19.0229997,104.583578 C18.7965997,104.470278 18.5491997,104.346678 18.3021997,104.202378 C17.5966393,103.791925 16.92186,103.330709 16.2831997,102.822378 C15.8500997,102.482378 15.4074997,102.111578 14.9436997,101.689278 C14.4804997,101.277178 13.9859997,100.813678 13.4809997,100.309278 C12.9759997,99.8048781 12.4409997,99.2692781 11.8945997,98.6816781 C7.77459974,94.2933781 4.47759974,87.5254781 2.40729974,79.5626781 C4.34355832,78.3582941 6.87740346,78.8169653 8.26859974,80.6236781 L12.8527997,86.6189781 L12.8627997,86.6395781 L13.6458997,87.6695781 C15.136033,89.6081025 17.913229,89.9765681 19.8572997,88.4936781 C20.7899416,87.7809883 21.9677258,87.4684562 23.131018,87.6249775 C24.2943102,87.7814988 25.347601,88.3942225 26.0586997,89.3280781 L31.4360997,96.3638781 C31.4568997,96.3938781 31.4875997,96.4351781 31.5081997,96.4659781 Z" id="Path" fill="#F5BB6E"></path>
                    <path d="M131.9142,16.4772781 C130.134587,19.4990988 128.008296,22.3028409 125.5785,24.8315781 C119.3671,31.6302781 116.5031,38.2333781 112.2076,43.5693781 L110.1992,41.3340781 C108.684727,39.6522973 108.818433,37.0617068 110.498,35.5447781 L116.5856,30.0647781 C117.395459,29.3409625 117.88343,28.3242128 117.9415,27.2395888 C117.999569,26.1549648 117.622947,25.0919259 116.895,24.2857781 C115.380557,22.6040042 115.514217,20.0134609 117.1937,18.4964781 L123.2814,13.0164781 C124.968068,11.5105602 127.554066,11.6486284 129.0708,13.3255781 L131.9142,16.4772781 Z" id="Path" fill="#F5BB6E"></path>
                    <path d="M81.7984997,59.2065781 C80.7889434,59.1547096 79.8441843,58.6934349 79.1823997,57.9292781 C75.8344997,62.5236781 66.8723997,73.2471781 50.9260997,81.7662781 C48.412501,78.3810466 48.4969916,73.7267493 51.1317997,70.4349781 C54.3337322,66.420138 53.6792082,60.5706345 49.6690997,57.3627781 C45.6525264,54.1567651 44.9954373,48.301702 48.2014501,44.2851284 C51.407463,40.2685549 57.262526,39.6114655 61.2790997,42.8174781 L78.4203997,56.5074781 L78.8116997,56.8268781 L81.7984997,59.2065781 Z" id="Path" fill="#F5BB6E"></path>
                    <circle id="Oval" fill="#F5BB6E" cx="42.7575997" cy="63.4793781" r="3.0816"></circle>
                    <circle id="Oval" fill="#F5BB6E" cx="38.7167997" cy="53.5460781" r="3.0816"></circle>
                    <circle id="Oval" fill="#F5BB6E" cx="22.9110997" cy="46.0501781" r="5.1402"></circle>
                    <circle id="Oval" fill="#F5BB6E" cx="45.0025997" cy="13.3251781" r="5.1402"></circle>
                    <circle id="Oval" fill="#F5BB6E" cx="58.1661997" cy="32.6881781" r="3.0816"></circle>
                    <circle id="Oval" fill="#F5BB6E" cx="39.8623997" cy="27.7702781" r="3.0816"></circle>
                    <circle id="Oval" fill="#F5BB6E" cx="15.4443997" cy="78.8874781" r="3.0816"></circle>
                    <circle id="Oval" fill="#F5BB6E" cx="33.8598997" cy="82.4528781" r="3.0816"></circle>
                    <circle id="Oval" fill="#F5BB6E" cx="105.9461" cy="12.8086781" r="3.0816"></circle>
                    <circle id="Oval" fill="#F5BB6E" cx="95.6063997" cy="20.0883781" r="3.0816"></circle>
                    <circle id="Oval" fill="#F5BB6E" cx="107.1037" cy="25.7173781" r="3.0816"></circle>
                    <circle id="Oval" fill="#F5BB6E" cx="98.6880997" cy="37.6397781" r="3.0816"></circle>
                    <path d="M7.49059974,85.0506781 C6.63966227,85.0506229 5.94985496,84.3608156 5.94979974,83.5098781 L7.49059974,85.0506781 Z" id="Path" fill="#F5BB6E"></path>
                    <path d="M29.9117997,26.4593781 C28.2840997,29.7144781 24.9049997,31.3214781 22.3608997,30.0441781 C19.8267997,28.7667781 16.4477997,30.3741781 14.8200997,33.6289781 C14.1467089,35.0114237 13.0737104,36.1598108 11.7400997,36.9253781 C10.3900265,37.759398 8.71252742,37.8637492 7.26949974,37.2034781 L4.00359974,35.5655781 C6.84450688,27.0479824 11.8076963,19.394146 18.4252997,13.3255781 L23.8439997,16.0555781 L28.2734997,18.2693781 C30.8075997,19.5470781 31.5393997,23.2142781 29.9117997,26.4593781 Z" id="Path" fill="#F5BB6E"></path>
                    <path d="M15.4448997,66.6150781 C15.4404596,67.4261441 15.1125589,68.2019088 14.5339378,68.7702796 C13.9553166,69.3386504 13.1738155,69.6526342 12.3627997,69.6425781 L12.3627997,69.6425781 C10.6608791,69.6425781 9.28119974,68.2628988 9.28119974,66.5609781 L9.28119974,62.6921781 C9.28119974,59.7230953 11.6881169,57.3161781 14.6571997,57.3161781 L18.4117997,57.3161781 C19.9119532,57.2897048 21.2234611,58.3228329 21.5489997,59.7874781 C21.7309033,60.6936905 21.4968746,61.6337174 20.9113185,62.3488634 C20.3257623,63.0640094 19.4503884,63.4789077 18.5260997,63.4793781 C17.6994261,63.4793853 16.9074171,63.8115247 16.3280172,64.401173 C15.7486173,64.9908213 15.4304141,65.7885314 15.4448997,66.6150781 Z" id="Path" fill="#F5BB6E"></path>
                </g>
            </g>
        </g>
    </g>
</svg>